<svg width="24" height="24" viewBox="0 0 24 24" fill="none" xmlns="http://www.w3.org/2000/svg">
<path d="M18.1464 5.14645C18.3417 4.95118 18.6583 4.95118 18.8536 5.14645C19.0488 5.34171 19.0488 5.65829 18.8536 5.85355L12.7071 12L18.8536 18.1464C19.0488 18.3417 19.0488 18.6583 18.8536 18.8536C18.6583 19.0488 18.3417 19.0488 18.1464 18.8536L12 12.7071L5.85355 18.8536C5.65829 19.0488 5.34171 19.0488 5.14645 18.8536C4.95118 18.6583 4.95118 18.3417 5.14645 18.1464L11.2929 12L5.14645 5.85355C4.95118 5.65829 4.95118 5.34171 5.14645 5.14645C5.34171 4.95118 5.65829 4.95118 5.85355 5.14645L12 11.2929L18.1464 5.14645Z" fill="#252525"/>
</svg>
