<svg width="16" height="16" viewBox="0 0 16 16" fill="none" xmlns="http://www.w3.org/2000/svg">
<path fill-rule="evenodd" clip-rule="evenodd" d="M7.61052 7.8172C7.65525 7.49303 7.80436 7.19237 8.03517 6.96097L12.9822 2.00128L14.0051 3.02683L9.05811 7.98652C8.82729 8.21793 8.5274 8.36742 8.20406 8.41226L7.51524 8.50778L7.61052 7.8172ZM7.32897 6.25296C6.94428 6.63863 6.69576 7.13973 6.62122 7.68001L6.43556 9.02572L6.34517 9.68085L6.99863 9.59023L8.3409 9.4041C8.87981 9.32936 9.37962 9.08021 9.76431 8.69453L14.7113 3.73484C15.1013 3.34382 15.1013 2.70985 14.7113 2.31882L13.6884 1.29327C13.2984 0.902244 12.666 0.902244 12.276 1.29327L7.32897 6.25296ZM2.5022 3.7041C1.67377 3.7041 1.0022 4.37567 1.0022 5.2041V13.5036C1.0022 14.332 1.67377 15.0036 2.5022 15.0036H10.7754C11.6038 15.0036 12.2754 14.332 12.2754 13.5036V9.19935H11.2754V13.5036C11.2754 13.7797 11.0515 14.0036 10.7754 14.0036H2.5022C2.22605 14.0036 2.0022 13.7797 2.0022 13.5036V5.2041C2.0022 4.92795 2.22605 4.7041 2.5022 4.7041H6.79289V3.7041H2.5022Z" fill="#1FA2DE"/>
</svg>
