<svg width="24" height="24" viewBox="0 0 24 24" fill="none" xmlns="http://www.w3.org/2000/svg">
<path fill-rule="evenodd" clip-rule="evenodd" d="M12 15.75C9.9321 15.75 8.25 14.0679 8.25 12C8.25 9.93216 9.9321 8.25 12 8.25C14.0679 8.25 15.75 9.93216 15.75 12C15.75 14.0679 14.0679 15.75 12 15.75ZM12 14.5C10.6224 14.5 9.5 13.3776 9.5 12C9.5 10.6225 10.6225 9.5 12 9.5C13.3775 9.5 14.5 10.6225 14.5 12C14.5 13.3776 13.3775 14.5 12 14.5Z" fill="#1FA2DE"/>
<path fill-rule="evenodd" clip-rule="evenodd" d="M10.8194 0.75C9.8451 0.75 9.05102 1.52177 9.01515 2.48734L8.65121 4.30708L7.42065 3.19756C6.71458 2.50501 5.58078 2.50919 4.87988 3.2101L3.21032 4.87966C2.50942 5.58056 2.50523 6.71434 3.19775 7.42041L4.30722 8.65118L2.48734 9.01515C1.52177 9.05102 0.75 9.8451 0.75 10.8194V13.1806C0.75 14.1549 1.52177 14.949 2.48734 14.9848L4.30709 15.3488L3.19769 16.5792C2.50513 17.2853 2.50931 18.4191 3.21022 19.12L4.87978 20.7896C5.58068 21.4905 6.71447 21.4946 7.42054 20.8021L8.65118 19.6928L9.01515 21.5127C9.05102 22.4782 9.8451 23.25 10.8194 23.25H13.1806C14.1549 23.25 14.949 22.4782 14.9848 21.5126L15.3488 19.6928L16.5795 20.8021C17.2855 21.4946 18.4193 21.4905 19.1202 20.7896L20.7898 19.12C21.4907 18.4191 21.4949 17.2853 20.8023 16.5792L19.6929 15.3488L21.5126 14.9848C22.4782 14.949 23.25 14.1549 23.25 13.1806V10.8194C23.25 9.8451 22.4782 9.05102 21.5127 9.01515L19.6928 8.65118L20.8023 7.4204C21.4948 6.71433 21.4906 5.58055 20.7897 4.87966L19.1201 3.2101C18.4192 2.50919 17.2854 2.50501 16.5793 3.19756L15.3488 4.30708L14.9848 2.48735C14.949 1.52177 14.1549 0.75 13.1806 0.75H10.8194ZM10.2639 2.55556C10.2639 2.24873 10.5126 2 10.8194 2H13.1806C13.4874 2 13.7361 2.24873 13.7361 2.55556V2.61744L14.1231 4.55223C14.3132 5.50274 15.4659 5.88455 16.1858 5.23544L17.4391 4.1054L17.4506 4.09398C17.6675 3.87702 18.0193 3.87702 18.2362 4.09398L19.9058 5.76354C20.1228 5.9805 20.1228 6.33226 19.9058 6.54921L19.8944 6.56066L18.7643 7.81423C18.1153 8.53417 18.4972 9.68681 19.4476 9.8769L21.3826 10.2639H21.4444C21.7513 10.2639 22 10.5126 22 10.8194V13.1806C22 13.4874 21.7513 13.7361 21.4444 13.7361H21.3826L19.4478 14.1231C18.4973 14.3132 18.1154 15.4659 18.7646 16.1858L19.8945 17.439L19.9059 17.4504C20.1229 17.6674 20.1229 18.0192 19.9059 18.2361L18.2363 19.9057C18.0194 20.1226 17.6676 20.1226 17.4507 19.9057L17.4392 19.8942L16.1858 18.7643C15.4658 18.1153 14.3132 18.4972 14.1231 19.4476L13.7361 21.3826V21.4444C13.7361 21.7513 13.4874 22 13.1806 22H10.8194C10.5126 22 10.2639 21.7513 10.2639 21.4444V21.3826L9.8769 19.4476C9.68681 18.4972 8.53417 18.1153 7.81423 18.7643L6.56078 19.8942L6.54934 19.9057C6.33238 20.1226 5.98062 20.1226 5.76366 19.9057L4.09411 18.2361C3.87715 18.0192 3.87715 17.6674 4.09411 17.4504L4.10553 17.439L5.23545 16.1858C5.88455 15.4659 5.50274 14.3132 4.55223 14.1231L2.61744 13.7361H2.55556C2.24873 13.7361 2 13.4874 2 13.1806V10.8194C2 10.5126 2.24873 10.2639 2.55556 10.2639H2.61744L4.55237 9.8769C5.50282 9.68681 5.88466 8.53417 5.23567 7.81423L4.10565 6.56066L4.0942 6.54921C3.87724 6.33226 3.87724 5.9805 4.0942 5.76354L5.76376 4.09398C5.98072 3.87702 6.33247 3.87702 6.54943 4.09398L6.56085 4.1054L7.81415 5.23544C8.53407 5.88455 9.68683 5.50274 9.87693 4.55223L10.2639 2.61744V2.55556Z" fill="#1FA2DE"/>
</svg>
